<svg id="Layer_1" data-name="Layer 1" xmlns="http://www.w3.org/2000/svg" viewBox="0 0 3479.93 656.82"><defs><style>.cls-1{fill:#f2f2f2;}.cls-2{fill:#00085b;}</style></defs><path class="cls-1" d="M444.39,23.14h0A176.47,176.47,0,0,0,267.92,199.61V442.26a66.18,66.18,0,0,1-132.35,0V376.08H259.92V265.78H25.27V442.26A176.47,176.47,0,0,0,201.74,618.73h0A176.47,176.47,0,0,0,378.21,442.26V199.61a66.18,66.18,0,0,1,66.18-66.18h0a66.18,66.18,0,0,1,66.18,66.18v58.17H620.86V199.61A176.47,176.47,0,0,0,444.39,23.14Z"/><path class="cls-2" d="M687,265.78H385.21v110.3H687a66.17,66.17,0,0,1,66.17,66.18h0a66.18,66.18,0,0,1-132.35,0V383.08H510.57v59.18A176.47,176.47,0,0,0,687,618.73h0A176.47,176.47,0,0,0,863.51,442.26h0A176.47,176.47,0,0,0,687,265.78Z"/><path class="cls-1" d="M1476,126.05V403.29q0,64.38-36.25,99.18T1342,537.27q-64.38,0-103.24-36.54t-38.86-103.82h98.6q0,25.53,10.44,38.57t30.16,13q18,0,27.84-11.6t9.86-33.64V126.05Z"/><path class="cls-1" d="M1617.79,517.55a148.56,148.56,0,0,1-59.74-58q-21.75-37.69-21.75-88.16,0-49.87,22-87.87a149.61,149.61,0,0,1,60.32-58.29q38.28-20.29,85.84-20.3t85.84,20.3a149.68,149.68,0,0,1,60.32,58.29q22,38,22,87.87t-22.33,87.87a151,151,0,0,1-60.9,58.29q-38.58,20.31-86.13,20.3T1617.79,517.55Zm134-86.42q20-20.88,20-59.74t-19.43-59.74q-19.44-20.88-47.85-20.88-29,0-48.14,20.59t-19.14,60q0,38.87,18.85,59.74T1703.34,452Q1731.75,452,1751.77,431.13Z"/><path class="cls-1" d="M2064.68,218.85q26.1-13.92,59.74-13.92,40,0,72.5,20.3t51.33,58q18.84,37.71,18.85,87.58t-18.85,87.87q-18.86,38-51.33,58.58t-72.5,20.59q-34.23,0-59.74-13.63t-40-36.25v45.24h-99.18V104h99.18V255.39Q2038.58,232.77,2064.68,218.85Zm80.91,93.67q-20.6-21.16-50.75-21.17-29.58,0-50.17,21.46t-20.59,58.58q0,37.13,20.59,58.58t50.17,21.46q29.58,0,50.46-21.75t20.88-58.87Q2166.18,333.7,2145.59,312.52Z"/><path class="cls-2" d="M2607.55,242.92q33.63,36.84,33.64,101.21V533.21h-98.6V357.47q0-32.48-16.82-50.46t-45.24-18q-28.43,0-45.24,18t-16.82,50.46V533.21h-99.18V104h99.18V253.07q15.08-21.45,41.18-34.22t58.58-12.76Q2573.91,206.09,2607.55,242.92Z"/><path class="cls-2" d="M3029.79,209.57V533.21h-99.18V489.13q-15.09,21.47-40.89,34.51t-57.13,13.05q-37.12,0-65.54-16.53T2723,472.31q-15.66-31.32-15.66-73.66V209.57h98.6V385.31q0,32.49,16.82,50.46t45.24,18q29,0,45.82-18t16.82-50.46V209.57Z"/><path class="cls-2" d="M3240.32,218.85q26.11-13.92,59.75-13.92,40,0,72.5,20.3t51.33,58q18.84,37.71,18.84,87.58t-18.84,87.87q-18.87,38-51.33,58.58t-72.5,20.59q-34.25,0-59.75-13.63t-40-36.25v45.24h-99.19V104h99.19V255.39Q3214.22,232.77,3240.32,218.85Zm80.92,93.67q-20.61-21.16-50.75-21.17-29.59,0-50.17,21.46t-20.59,58.58q0,37.13,20.59,58.58t50.17,21.46q29.57,0,50.45-21.75t20.88-58.87Q3341.82,333.7,3321.24,312.52Z"/></svg>