<svg id="Layer_1" data-name="Layer 1" xmlns="http://www.w3.org/2000/svg" viewBox="0 0 888.38 656.82"><defs><style>.cls-1{fill:#f2f2f2;}.cls-2{fill:#00085b;}</style></defs><path class="cls-1" d="M444.39,30.62h0A176.47,176.47,0,0,0,267.92,207.09V449.73a66.18,66.18,0,1,1-132.35,0V383.56H259.92V273.26H25.27V449.73A176.47,176.47,0,0,0,201.74,626.2h0A176.46,176.46,0,0,0,378.21,449.73V207.09a66.18,66.18,0,0,1,66.18-66.18h0a66.18,66.18,0,0,1,66.18,66.18v58.17H620.86V207.09A176.47,176.47,0,0,0,444.39,30.62Z"/><path class="cls-2" d="M687,273.26H385.21v110.3H687a66.17,66.17,0,0,1,66.17,66.17h0a66.18,66.18,0,1,1-132.35,0V390.56H510.57v59.17A176.47,176.47,0,0,0,687,626.2h0A176.47,176.47,0,0,0,863.51,449.73h0A176.47,176.47,0,0,0,687,273.26Z"/></svg>