<svg width="576.003" height="72" viewBox="0 0 576.003 72" xmlns="http://www.w3.org/2000/svg"><g id="svgGroup" stroke-linecap="round" fill-rule="evenodd" font-size="9pt" stroke="#130b56" stroke-width="0.25mm" fill="#130b56" style="stroke:#130b56;stroke-width:0.25mm;fill:#130b56"><path d="M 244.5 0 L 229 0 C 225.7 0 223 2.7 223 6 C 223 9.3 225.7 12 229 12 L 244.3 12 C 249.1 12.3 253 16.2 253 21 C 253 26.005 249.244 29.854 244.285 29.996 A 9.938 9.938 0 0 1 244 30 L 229 30 C 225.7 30 223 32.7 223 36 C 223 39.3 225.7 42 229 42 L 244.3 42 C 249.1 42.3 253 46.2 253 51 C 253 56.005 249.244 59.854 244.285 59.996 A 9.938 9.938 0 0 1 244 60 L 229 60 C 225.7 60 223 62.7 223 66 C 223 69.3 225.7 72 229 72 L 244.5 72 C 250.2 71.9 255 69.8 259 65.7 C 263 61.6 265 56.7 265 51 C 265 45.1 262.9 40.1 258.7 36 A 20.125 20.125 0 0 0 264.997 21.413 A 24.601 24.601 0 0 0 265 21 A 20.003 20.003 0 0 0 259.46 6.884 A 25.134 25.134 0 0 0 259 6.4 A 20.078 20.078 0 0 0 244.767 0.006 A 22.902 22.902 0 0 0 244.5 0 Z M 555.5 0 L 540 0 C 536.7 0 534 2.7 534 6 C 534 9.3 536.7 12 540 12 L 555.3 12 C 560.1 12.3 564 16.2 564 21 C 564 26.005 560.244 29.854 555.285 29.996 A 9.938 9.938 0 0 1 555 30 L 540 30 C 536.7 30 534 32.7 534 36 C 534 39.3 536.7 42 540 42 L 555.3 42 C 560.1 42.3 564 46.2 564 51 C 564 56.005 560.244 59.854 555.285 59.996 A 9.938 9.938 0 0 1 555 60 L 540 60 C 536.7 60 534 62.7 534 66 C 534 69.3 536.7 72 540 72 L 555.5 72 C 561.2 71.9 566 69.8 570 65.7 C 574 61.6 576 56.7 576 51 C 576 45.1 573.9 40.1 569.7 36 A 20.125 20.125 0 0 0 575.997 21.413 A 24.601 24.601 0 0 0 576 21 A 20.003 20.003 0 0 0 570.46 6.884 A 25.134 25.134 0 0 0 570 6.4 A 20.078 20.078 0 0 0 555.767 0.006 A 22.902 22.902 0 0 0 555.5 0 Z M 368 66 L 368 6 C 368 2.7 365.3 0 362 0 C 358.7 0 356 2.7 356 6 L 356 30 L 332 30 C 328.7 30 326 32.7 326 36 C 326 39.3 328.7 42 332 42 L 356 42 L 356 66 C 356 69.3 358.7 72 362 72 C 365.3 72 368 69.3 368 66 Z M 133.6 65.8 A 5.919 5.919 0 0 0 139.126 69.401 C 139.385 69.401 139.646 69.385 139.907 69.352 A 6.427 6.427 0 0 0 141.6 68.9 C 148 66 153.2 61.7 157.1 55.8 C 161 49.9 163 43.3 163 36 C 163 28.9 161.1 22.4 157.2 16.5 C 153.3 10.6 148.2 6.2 141.9 3.3 C 138.767 1.876 135.543 2.976 133.942 5.744 A 6.988 6.988 0 0 0 133.7 6.2 C 132.586 8.686 133.308 11.612 135.49 13.342 A 6.502 6.502 0 0 0 136.7 14.1 C 145.2 18 151 26.4 151 36 C 151 45.6 145.2 54.2 136.7 57.9 A 5.865 5.865 0 0 0 133.403 61.527 C 133.193 62.171 133.089 62.848 133.1 63.525 A 5.783 5.783 0 0 0 133.6 65.8 Z M 91 36 C 91 43.3 92.9 49.9 96.8 55.8 C 100.7 61.7 105.9 66 112.3 68.9 C 113.107 69.239 113.949 69.401 114.774 69.401 A 5.919 5.919 0 0 0 120.3 65.8 A 5.783 5.783 0 0 0 120.8 63.525 C 120.838 61.2 119.525 58.875 117.2 57.9 C 108.8 54.2 103 45.6 103 36 C 103 26.4 108.8 18 117.2 14.1 A 6.421 6.421 0 0 0 119.525 12.236 C 120.805 10.564 121.095 8.335 120.2 6.2 C 118.872 3.455 116.133 2.122 113.093 2.893 A 8.069 8.069 0 0 0 111.9 3.3 C 105.6 6.2 100.6 10.6 96.7 16.5 C 92.9 22.4 91 28.9 91 36 Z M 405 6 L 405 38.5 C 405 45 406.7 51 410.2 56.5 C 413.7 61.9 418.2 66 423.9 68.7 C 427 70 430.3 68.9 431.8 65.8 C 433.29 63.193 432.092 59.718 428.932 57.88 A 8.568 8.568 0 0 0 428.2 57.5 C 421.4 53.8 417 46.6 417 38.5 L 417 6 C 417 2.7 414.3 0 411 0 C 407.7 0 405 2.7 405 6 Z M 472 38.5 L 472 6 C 472 2.7 469.3 0 466 0 C 462.7 0 460 2.7 460 6 L 460 38.5 A 21.541 21.541 0 0 1 455.462 51.86 A 20.519 20.519 0 0 1 448.6 57.5 A 7.358 7.358 0 0 0 445.763 59.889 C 444.585 61.576 444.259 63.688 445.119 65.625 A 5.872 5.872 0 0 0 445.2 65.8 C 446.53 68.549 449.196 69.803 452.084 69.007 A 7.547 7.547 0 0 0 453.2 68.6 C 458.9 65.9 463.4 61.8 466.8 56.4 C 470.3 51 472 45 472 38.5 Z M 210 66 L 210 6 C 210 2.7 207.3 0 204 0 C 200.7 0 198 2.7 198 6 L 198 66 C 198 69.3 200.7 72 204 72 C 207.3 72 210 69.3 210 66 Z M 313 66 L 313 6 C 313 2.7 310.3 0 307 0 C 303.7 0 301 2.7 301 6 L 301 66 C 301 69.3 303.7 72 307 72 C 310.3 72 313 69.3 313 66 Z M 521 66 L 521 6 C 521 2.7 518.3 0 515 0 C 511.7 0 509 2.7 509 6 L 509 66 C 509 69.3 511.7 72 515 72 C 518.3 72 521 69.3 521 66 Z M 57 43.5 L 57 6 C 57 2.7 54.3 0 51 0 C 47.7 0 45 2.7 45 6 L 45 43.5 C 45 48.953 42.879 53.345 38.553 56.594 A 20.356 20.356 0 0 1 37.7 57.2 C 34.832 59.079 33.822 62.817 35.639 65.511 A 5.426 5.426 0 0 0 35.7 65.6 A 5.956 5.956 0 0 0 40.775 68.405 C 41.9 68.405 43.028 68.084 44 67.4 C 52 62.2 57 53.4 57 43.5 Z M 0 43.5 C 0 53.4 5 62.2 13 67.4 C 13.972 68.084 15.1 68.405 16.225 68.405 A 5.956 5.956 0 0 0 21.3 65.6 A 5.407 5.407 0 0 0 22.279 62.849 C 22.427 60.718 21.335 58.509 19.2 57.2 A 16.825 16.825 0 0 1 14.294 52.157 C 12.884 49.86 12.124 47.223 12.014 44.26 A 20.466 20.466 0 0 1 12 43.5 C 12 40.2 9.3 37.5 6 37.5 C 2.7 37.5 0 40.2 0 43.5 Z" vector-effect="non-scaling-stroke"/></g></svg>